# xmcd
#
# Track frame offsets:
# 150
# 8790
# 16262
# 22876
# 33684
# 43472
# 50768
# 63571
# 71348
# 83434
# 92712
# 101081
# 107867
# 118172
#
# Disc length: 1735 seconds
#
# Revision: 0
# Processed by: cddbd v1.5.2PL0 Copyright (c) Steve Scherf et al.
# Submitted via: Axialis_AX_CDPlayer 2.6
#
DISCID=b906c50e
DTITLE=Stringbean - Stringbean And His Banjo - A Salute To Uncle Dave Macon
DYEAR=1900
DGENRE=
TTITLE0=Ida Red
TTITLE1=Tennessee Farmer
TTITLE2=Pretty Little Widow
TTITLE3=John Henry
TTITLE4=There'll Be Moonshining In Them Old Kentucky Hills
TTITLE5=Hesitation Blues
TTITLE6=Take My Hand Precious Lord
TTITLE7=How Many Biscuits Can You Eat
TTITLE8=Over The Mountain
TTITLE9=Bully Of The Town
TTITLE10=I'm The Man Who Rode The Mule Round The World
TTITLE11=Cripple Creek
TTITLE12=Free Little Bird
TTITLE13=You Can't Do Wrong And Get By
EXTD=
EXTT0=
EXTT1=
EXTT2=
EXTT3=
EXTT4=
EXTT5=
EXTT6=
EXTT7=
EXTT8=
EXTT9=
EXTT10=
EXTT11=
EXTT12=
EXTT13=
PLAYORDER=
